<svg id="Layer_1" data-name="Layer 1" xmlns="http://www.w3.org/2000/svg" viewBox="0 0 60 60"><defs><style>.cls-1{fill:#fff;}.cls-2{fill:#ed1c24;}.cls-3{fill:#faa71e;}.cls-4{fill:#faa41a;}</style></defs><circle class="cls-1" cx="30" cy="30" r="30"/><path class="cls-2" d="M7,24.81H18.38a7.34,7.34,0,0,1,1.41-1Z"/><path class="cls-2" d="M18,25.16,4.47,26H17.24Z"/><path class="cls-2" d="M8.78,26.92h7.57c.09-.18.36-.35.62-.71Z"/><path class="cls-3" d="M15.3,37.13a2.43,2.43,0,0,1-2.38-1.5H8.52a1.54,1.54,0,0,1-1.32-.52A1.79,1.79,0,0,1,6.93,34l.53.09L7.2,34l.26.09a.87.87,0,0,0,.18.7,1.4,1.4,0,0,0,1,.36h4.75v.17c0,.09.27,1.23,1.94,1.23h0a2.06,2.06,0,0,0,2.11-1.4l.09-.18h.18l28.87.18.09.17a1.79,1.79,0,0,0,1.94,1.15,2.6,2.6,0,0,0,2-1.15l.09-.17h3a1.94,1.94,0,0,0,1.15-.36.64.64,0,0,0,.17-.52v-.18h.53v.18a1,1,0,0,1-.35.88,2.51,2.51,0,0,1-1.59.52H51A3,3,0,0,1,48.58,37a2.32,2.32,0,0,1-2.38-1.32l-28.35-.17a2.69,2.69,0,0,1-2.55,1.67Z"/><path class="cls-4" d="M54.65,32a2.59,2.59,0,0,1-.7-.61l-.18-1.06c-.44-1-3.52-1.41-3.52-1.41l-9.16-1.23s-4-2.9-5.19-3.7a9.69,9.69,0,0,0-4.84-1.14c-2,0-4,0-5.9.18-.79.08-1.59.17-2.29.26a6.52,6.52,0,0,0-2.55.7,7.17,7.17,0,0,0-2.12,1.5h0l-1.05,1.06a5.54,5.54,0,0,0-.36.44c-.08.08-.17.35-.35.35,0,0-4.49.26-6.25.44s-1.58,1.41-1.58,1.41v2.11a1.41,1.41,0,0,0-1.32,1.59H8.7v-.8c0-.44.35-.35.35-.35h.53c0-.09,0-.35.08-1.76.09-1.94,2.47-1.76,2.47-1.76L16.88,28a13,13,0,0,1,4.05-3.35L19.26,28.5l17.17-.08L29.91,28l-.7-4.32h2.2a5.83,5.83,0,0,1,3.61,1l5.28,3.7S49,29.3,51,29.56a2,2,0,0,1,1.85,2.2C54,31.67,54,32.2,54,32.2V33h1.24A1.56,1.56,0,0,0,54.65,32ZM20.76,27.54l1.14-3.35a41.37,41.37,0,0,1,5.64-.53H28c.08,1.32.26,2.55.35,3.88Z"/><path class="cls-4" d="M9.49,31.76Z"/><rect class="cls-4" x="11.69" y="29.12" width="0.88" height="1.14"/><rect class="cls-4" x="13.54" y="29.12" width="0.88" height="1.14"/><rect class="cls-4" x="15.3" y="29.12" width="0.88" height="1.14"/><rect class="cls-4" x="17.15" y="29.12" width="0.88" height="1.14"/><rect class="cls-4" x="19" y="29.12" width="0.88" height="1.14"/><rect class="cls-4" x="20.84" y="29.12" width="0.88" height="1.14"/><rect class="cls-4" x="22.69" y="29.12" width="0.88" height="1.14"/><rect class="cls-4" x="24.54" y="29.12" width="0.88" height="1.14"/><rect class="cls-4" x="16.27" y="30.26" width="0.88" height="1.14"/><rect class="cls-4" x="18.12" y="30.26" width="0.88" height="1.14"/><rect class="cls-4" x="19.96" y="30.26" width="0.88" height="1.14"/><rect class="cls-4" x="21.81" y="30.26" width="0.88" height="1.14"/><rect class="cls-4" x="23.57" y="30.26" width="0.88" height="1.14"/><rect class="cls-4" x="25.42" y="30.26" width="0.88" height="1.14"/><rect class="cls-4" x="26.39" y="29.12" width="0.88" height="1.14"/><rect class="cls-4" x="28.24" y="29.12" width="0.88" height="1.14"/><rect class="cls-4" x="30" y="29.12" width="0.88" height="1.14"/><rect class="cls-4" x="31.85" y="29.12" width="0.88" height="1.14"/><rect class="cls-4" x="33.7" y="29.12" width="0.88" height="1.14"/><rect class="cls-4" x="35.55" y="29.12" width="0.88" height="1.14"/><rect class="cls-4" x="37.39" y="29.12" width="0.88" height="1.14"/><rect class="cls-4" x="27.27" y="30.26" width="0.88" height="1.14"/><rect class="cls-4" x="29.12" y="30.26" width="0.88" height="1.14"/><rect class="cls-4" x="12.57" y="30.26" width="0.88" height="1.14"/><rect class="cls-4" x="14.42" y="30.26" width="0.88" height="1.14"/><rect class="cls-4" x="34.67" y="30.26" width="0.88" height="1.14"/><rect class="cls-4" x="36.43" y="30.26" width="0.88" height="1.14"/><rect class="cls-4" x="38.28" y="30.26" width="0.88" height="1.14"/><rect class="cls-4" x="30.97" y="30.26" width="0.88" height="1.14"/><rect class="cls-4" x="32.82" y="30.26" width="0.88" height="1.14"/><path d="M16.62,35l.26.17a2.26,2.26,0,0,1-1.49.62,1.93,1.93,0,0,1-1.06-.26.88.88,0,0,1-.35-.8,1.27,1.27,0,0,1,.61-1.14,2.24,2.24,0,0,1,1.5-.53,1.7,1.7,0,0,1,.79.18c.18.09.36.26.36.44,0,.35-.36.61-1.15.79a3.24,3.24,0,0,1-1,.09v.26a.43.43,0,0,0,.18.35.66.66,0,0,0,.44.18,1.12,1.12,0,0,0,.53-.09A1.79,1.79,0,0,0,16.62,35Zm-1.5-.62a3.65,3.65,0,0,0,.44-.09.76.76,0,0,0,.53-.35c.18-.17.26-.26.26-.44s0-.17-.08-.17-.09-.09-.18-.09a.78.78,0,0,0-.62.35A3.41,3.41,0,0,0,15.12,34.4Z"/><path d="M49.81,35l.26.17a2.26,2.26,0,0,1-1.49.62,1.93,1.93,0,0,1-1.06-.26.85.85,0,0,1-.35-.8,1.27,1.27,0,0,1,.61-1.14,2.24,2.24,0,0,1,1.5-.53,1.7,1.7,0,0,1,.79.18.57.57,0,0,1,.35.44c0,.35-.35.61-1.14.79a3.24,3.24,0,0,1-1,.09v.26a.43.43,0,0,0,.18.35.66.66,0,0,0,.44.18,1.12,1.12,0,0,0,.53-.09A1.79,1.79,0,0,0,49.81,35Zm-1.5-.62a3.65,3.65,0,0,0,.44-.09.76.76,0,0,0,.53-.35c.18-.17.26-.26.26-.44s0-.17-.08-.17-.09-.09-.18-.09a.78.78,0,0,0-.62.35A1.62,1.62,0,0,0,48.31,34.4Z"/><path d="M17.76,32.38l1.59-.09-.18.62a1.39,1.39,0,0,1,.53-.53,1.24,1.24,0,0,1,.53-.18.66.66,0,0,1,.44.09.44.44,0,0,1,.17.35.45.45,0,0,1-.17.27c-.09.08-.18.08-.35.08a.36.36,0,0,1-.27-.08l-.17-.18v-.18c0-.09,0-.09-.09-.09s-.18.09-.27.18-.26.27-.44.53a1.92,1.92,0,0,0-.35.7l-.17.88h-1l.61-1.58a.65.65,0,0,0,.09-.35c0-.09,0-.09-.09-.09h-.52Z"/><path d="M23.4,32.55l.09-.26h1l-.61,1.76c0,.09-.09.18-.09.26v.09h.09c.09,0,.17-.09.26-.17a1.83,1.83,0,0,0,.35-.44l.27.08a1,1,0,0,1-.44.44,1.39,1.39,0,0,1-.88.44.55.55,0,0,1-.35-.08c-.09-.09-.18-.09-.18-.18v-.18a1.55,1.55,0,0,1-.44.36,1.23,1.23,0,0,1-.53.08,1,1,0,0,1-.79-.26.86.86,0,0,1-.27-.7,1.26,1.26,0,0,1,.53-1.06,1.75,1.75,0,0,1,1.24-.53A1.76,1.76,0,0,1,23.4,32.55Zm-.62,0c-.26,0-.44.18-.7.53a2.27,2.27,0,0,0-.27,1,.3.3,0,0,0,.09.26.32.32,0,0,0,.26.09c.27,0,.45-.17.62-.53l.27-.52a1.07,1.07,0,0,0,.08-.44.36.36,0,0,0-.08-.27A.33.33,0,0,0,22.78,32.55Z"/><path d="M25.51,31.06,27.18,31,26,34.05v.26c0,.09,0,.09.09.09s.17-.09.26-.17a2.11,2.11,0,0,0,.35-.44L27,34l-.53.53a1.4,1.4,0,0,1-.79.26c-.18,0-.36,0-.44-.08a.47.47,0,0,1-.18-.36,3.58,3.58,0,0,1,.18-.52l.7-2a.65.65,0,0,0,.09-.35c0-.09,0-.09-.09-.09h-.44Z"/><path d="M29.91,32.55l.09-.26h1L30.35,34c0,.09-.09.18-.09.27v.08h.09a.45.45,0,0,0,.27-.17A2.5,2.5,0,0,0,31,33.7l.26.09a1.1,1.1,0,0,1-.44.44,1.4,1.4,0,0,1-.88.44.51.51,0,0,1-.35-.09c-.09-.09-.18-.09-.18-.18v-.17a1.54,1.54,0,0,1-.44.35,1.06,1.06,0,0,1-.52.09,1.07,1.07,0,0,1-.8-.27.87.87,0,0,1-.26-.7,1.28,1.28,0,0,1,.53-1.06,1.74,1.74,0,0,1,1.23-.53A3.41,3.41,0,0,1,29.91,32.55Zm-.61,0c-.27,0-.44.18-.71.53a2.39,2.39,0,0,0-.26,1,.31.31,0,0,0,.35.35c.26,0,.44-.17.62-.53l.26-.52a1,1,0,0,0,.09-.44.33.33,0,0,0-.09-.27A.32.32,0,0,0,29.3,32.55Z"/><path d="M34.93,34.75H32.82v-.26h0c.26,0,.44,0,.44-.09a.09.09,0,0,1,.09-.09.94.94,0,0,0,.08-.35l.71-2.2a.65.65,0,0,0,.09-.35c0-.09,0-.09-.09-.09h-.53v-.26h2.2a2.11,2.11,0,0,1,.79.08,1.26,1.26,0,0,1,.62.18,1.19,1.19,0,0,1,.62,1.14,2,2,0,0,1-.27,1,6.26,6.26,0,0,1-.7.8,2,2,0,0,1-.88.35A2.25,2.25,0,0,1,34.93,34.75Zm0-.35h.18a1.79,1.79,0,0,0,1.32-.53,1.74,1.74,0,0,0,.44-.79,4.12,4.12,0,0,0,.17-1,.68.68,0,0,0-.26-.61c-.18-.18-.35-.18-.71-.18H35.9c-.18,0-.27,0-.27.09s-.08.09-.17.26l-.79,2.47c0,.17-.09.17-.09.26s0,.09.09.09A.3.3,0,0,1,34.93,34.4Z"/><path d="M38.63,32.38l1.58-.09-.17.62a1.38,1.38,0,0,1,.52-.53,1.29,1.29,0,0,1,.53-.18.64.64,0,0,1,.44.09.45.45,0,0,1,.18.35c0,.09-.09.18-.18.27s-.17.08-.35.08a.33.33,0,0,1-.26-.08l-.18-.18v-.18c0-.09,0-.09-.09-.09s-.17.09-.26.18-.27.27-.44.53a1.65,1.65,0,0,0-.35.7l-.27.71h-1L39,33a.63.63,0,0,0,.09-.35c0-.09,0-.09-.09-.09h-.44Z"/><path d="M41.88,32.38l1.68-.09-.62,1.85a.27.27,0,0,1-.09.17c0,.09,0,.09.09.09s.35-.17.62-.61l.26.17a2,2,0,0,1-.61.62,1,1,0,0,1-.71.17.71.71,0,0,1-.44-.08.47.47,0,0,1-.18-.36A.67.67,0,0,1,42,34l.35-.88a.63.63,0,0,0,.09-.35l-.09-.09h-.44Zm1.33-.53c-.18,0-.27,0-.36-.09s-.17-.18-.17-.26,0-.27.17-.27a.54.54,0,0,1,.36-.09c.17,0,.26,0,.35.09a.45.45,0,0,1,.17.27c0,.08-.08.17-.17.26S43.38,31.85,43.21,31.85Z"/><path d="M44.17,32.38l1.68-.09-.44,1.23c-.09.35-.18.53-.18.62s0,.17.09.17a.31.31,0,0,0,.26.09.78.78,0,0,0,.62-.35,1.46,1.46,0,0,0,.35-.79v-.09a1.17,1.17,0,0,0-.26-.18c-.09-.08-.18-.17-.18-.26a.33.33,0,0,1,.09-.27c.09-.08.17-.08.35-.08s.26,0,.35.08a.47.47,0,0,1,.18.36,1.44,1.44,0,0,1-.09.61,1.5,1.5,0,0,1-.35.62,1.54,1.54,0,0,1-1.32.79,1.81,1.81,0,0,1-.71-.17.55.55,0,0,1-.26-.53.76.76,0,0,1,.09-.44l.17-.53a.65.65,0,0,0,.09-.35c0-.09,0-.09-.09-.09h-.52Z"/><path d="M52.36,32.29a1.86,1.86,0,0,1,.79.17.6.6,0,0,1,.36.45.32.32,0,0,1-.09.26c-.09.09-.18.09-.35.09a.54.54,0,0,1-.36-.09.32.32,0,0,1-.09-.26c0-.09,0-.18.09-.18v-.09a.09.09,0,0,0-.09-.09h-.26a.78.78,0,0,0-.44.09c-.09.09-.18.18-.18.27s0,.08.09.17.18.09.35.18a1.5,1.5,0,0,0,.44.17c.27.18.45.36.45.62a.67.67,0,0,1-.36.62,1.8,1.8,0,0,1-1,.26,1.74,1.74,0,0,1-.79-.18.58.58,0,0,1-.35-.44.32.32,0,0,1,.09-.26c.09-.09.17-.09.35-.09a.51.51,0,0,1,.35.09.32.32,0,0,1,.09.26c0,.09-.09.18-.18.27v.09a.08.08,0,0,0,.09.08h.27a.73.73,0,0,0,.44-.08c.08-.09.17-.18.17-.27s-.09-.26-.35-.35a3.2,3.2,0,0,0-.53-.18,1.69,1.69,0,0,1-.26-.79.68.68,0,0,1,.35-.62A2.4,2.4,0,0,1,52.36,32.29Z"/><path d="M11.42,31.94l-.52,1.14,1.85-1.23c.17-.09.17-.18.17-.18s-.09-.09-.26-.09h-.18l.09-.26h1.85l-.09.26c-.26,0-.44.09-.62.09l-.52.27-1.06.7.7,1.59c.09.17.18.26.18.35a1.83,1.83,0,0,0,.44.09h.09l-.09.26H11.07l.09-.26h.44a.09.09,0,0,0,.09-.09.28.28,0,0,0-.09-.18l-.44-1-.53.26-.26.53c-.09.17-.09.26-.18.35s0,.09.09.09h.44l-.09.26H8.43l.09-.26h0c.26,0,.44,0,.53-.09l.09-.09.17-.35,1.06-2.2c.09-.18.09-.27.17-.35s0-.09-.08-.09H9.84l.09-.27h2.38l-.09.27h-.09c-.27,0-.44,0-.53.09l-.09.08A.68.68,0,0,1,11.42,31.94Z"/></svg>